# xmcd
#
# Track frame offsets:
#	150
#	16715
#	32716
#	52849
#	67366
#
# Disc length: 1127 seconds
#
# Revision: 1
# Processed by: cddbd v1.5.1PL0 Copyright (c) Steve Scherf et al.
# Submitted via: CDex 1.50Beta5
#
DISCID=39046505
DTITLE=Various Artist - Md爽快仕込 Best Sound Collection 80'sA(非売品全5曲)
DYEAR=2002
DGENRE=Pop
TTITLE0=青い珊瑚礁
TTITLE1=素直になりたい
TTITLE2=Sachiko
TTITLE3=4　スローなブギにしてくれ(I Want You)
TTITLE4=もしもピアノが弾けたなら
EXTD=
EXTT0=
EXTT1=
EXTT2=
EXTT3=
EXTT4=
PLAYORDER=
